<svg xmlns="http://www.w3.org/2000/svg" viewBox="0 0 560 288"><defs><style>.a{fill:#29abe2;}.b,.e{fill:#e5e5e5;}.b{stroke:#333;stroke-miterlimit:10;stroke-width:7px;}.c{fill:#333;}.d{fill:#e6e6e6;opacity:0.18;}.f{font-size:9.68px;fill:#f2f2f2;font-family:MyriadPro-Regular, Myriad Pro;}.g{letter-spacing:-0.02em;}.h{fill:#1b1464;}.i{fill:#fcee21;}.j{fill:gray;}</style></defs><title>bg_eyez</title><rect class="a" width="560" height="288"/><ellipse class="b" cx="431.9" cy="220.67" rx="58.93" ry="56.41" transform="translate(-47.5 147.1) rotate(-18.34)"/><path class="c" d="M393.73,242.82a32.25,32.25,0,0,1-4.06-36.33l.09.11a4.54,4.54,0,0,0,6.87-5.94,4.6,4.6,0,0,0-1.81-1.27c.69-.71,1.41-1.4,2.18-2.06a32.25,32.25,0,1,1-3.27,45.49Z"/><path class="d" d="M397.59,238c-6.91-8.1-8.65-19.51-3.58-28.55l.07.09c1.26,1.47,4.63,1.62,6.16.32a4,4,0,0,0,.64-5.33,5,5,0,0,0-1.66-1.25c.56-.57.9-1.11,1.52-1.64A25.93,25.93,0,0,1,437,204.4c8.95,10.49,7.37,26.52-3.51,35.81S406.53,248.52,397.59,238Z"/><ellipse class="e" cx="257.95" cy="264.06" rx="17.54" ry="16.79" transform="translate(-70.92 431.72) rotate(-72.68)"/><path class="c" d="M259.22,251a9.58,9.58,0,0,1,9.49,5.32h0a1.35,1.35,0,0,0,.24,2.69,1.43,1.43,0,0,0,.62-.21,8.48,8.48,0,0,1,.13.88A9.6,9.6,0,1,1,259.22,251Z"/><path class="d" d="M259.71,252.75a7.52,7.52,0,0,1,7.53,4.09h0a1.5,1.5,0,0,0-1.14,1.44,1.19,1.19,0,0,0,1.17,1.08,1.64,1.64,0,0,0,.59-.19c0,.23.12.41.14.65a7.72,7.72,0,0,1-7,8.3,7.72,7.72,0,0,1-1.29-15.37Z"/><ellipse class="e" cx="302.05" cy="265.47" rx="16.79" ry="17.54" transform="translate(-65.33 101.94) rotate(-17.32)"/><path class="c" d="M300.78,252.39a9.61,9.61,0,0,0-9.49,5.32h0a1.35,1.35,0,0,1-.24,2.69,1.32,1.32,0,0,1-.62-.22,8.67,8.67,0,0,0-.13.89,9.6,9.6,0,1,0,10.44-8.69Z"/><path class="d" d="M300.29,254.16a7.51,7.51,0,0,0-7.53,4.09h0a1.5,1.5,0,0,1,1.14,1.43,1.17,1.17,0,0,1-1.17,1.08,1.45,1.45,0,0,1-.59-.18c0,.23-.12.41-.14.65a7.73,7.73,0,0,0,7,8.3,7.72,7.72,0,0,0,1.29-15.37Z"/><text class="f" transform="translate(74.2 208.99)"><tspan class="g">C</tspan><tspan x="5.41" y="0">CMS</tspan></text><ellipse class="b" cx="128.1" cy="221.33" rx="56.41" ry="58.93" transform="translate(-122.29 273.28) rotate(-71.66)"/><path class="c" d="M163.14,242.44a32.26,32.26,0,0,0,4.07-36.33l-.1.11a4.54,4.54,0,1,1-5.06-7.21c-.68-.71-1.41-1.4-2.17-2.06a32.25,32.25,0,1,0,3.26,45.49Z"/><path class="d" d="M159.29,237.64c6.9-8.09,8.65-19.5,3.58-28.55l-.07.09c-1.26,1.48-4.64,1.63-6.17.32a4,4,0,0,1-.64-5.32,5,5,0,0,1,1.67-1.25c-.56-.57-.9-1.11-1.52-1.64A25.92,25.92,0,0,0,119.87,204c-9,10.49-7.38,26.52,3.51,35.8S150.34,248.13,159.29,237.64Z"/><circle class="h" cx="280" cy="235.58" r="6.27"/><circle class="h" cx="507.08" cy="253.17" r="2.51"/><circle class="h" cx="22.97" cy="106.34" r="10.03"/><circle class="i" cx="527" cy="108.73" r="10.03"/><circle class="i" cx="59" cy="37.67" r="6.27"/><circle class="j" cx="536.49" cy="13.89" r="2.51"/><circle class="j" cx="514.07" cy="28.94" r="10"/></svg>