<svg xmlns="http://www.w3.org/2000/svg" viewBox="0 0 560 288"><defs><style>.a{fill:#29abe2;}.b{fill:#e5e5e5;stroke:#333;stroke-miterlimit:10;stroke-width:7px;}.c{fill:#333;}.d{fill:#e6e6e6;opacity:0.18;}.e{font-size:12px;fill:#f2f2f2;font-family:MyriadPro-Regular, Myriad Pro;letter-spacing:-0.02em;}.f{letter-spacing:0em;}.g{fill:#1b1464;}.h{fill:#fcee21;}.i{fill:gray;}</style></defs><title>bg_eyes_bottom</title><rect class="a" width="560" height="288"/><ellipse class="b" cx="445.34" cy="200.6" rx="73.04" ry="69.91" transform="translate(-40.5 150.31) rotate(-18.34)"/><path class="c" d="M398,228.05a40,40,0,0,1-5-45l.12.14a5.63,5.63,0,1,0,8.5-7.37,5.69,5.69,0,0,0-2.23-1.57c.85-.89,1.75-1.74,2.69-2.56a40,40,0,1,1-4,56.39Z"/><path class="d" d="M402.81,222.1c-8.55-10-10.72-24.17-4.43-35.38l.09.11c1.56,1.83,5.74,2,7.64.39a4.89,4.89,0,0,0,.79-6.59,6.43,6.43,0,0,0-2.06-1.56,27.42,27.42,0,0,1,1.88-2,32.14,32.14,0,0,1,45,3.38c11.09,13,9.14,32.87-4.36,44.38S413.9,235.11,402.81,222.1Z"/><text class="e" transform="translate(47.85 186.11)">C<tspan class="f" x="6.71" y="0">CMS</tspan></text><ellipse class="b" cx="114.66" cy="201.4" rx="69.91" ry="73.04" transform="translate(-112.59 246.87) rotate(-71.66)"/><path class="c" d="M158.09,227.57a40,40,0,0,0,5-45l-.12.14a5.63,5.63,0,1,1-6.27-8.93c-.85-.89-1.75-1.74-2.69-2.56a40,40,0,1,0,4,56.38Z"/><path class="d" d="M153.32,221.63c8.55-10,10.72-24.18,4.43-35.39l-.09.11c-1.56,1.83-5.74,2-7.64.4a4.9,4.9,0,0,1-.79-6.6,6.26,6.26,0,0,1,2.06-1.55,25.67,25.67,0,0,0-1.88-2,32.14,32.14,0,0,0-45,3.38c-11.09,13-9.14,32.87,4.36,44.38S142.23,234.63,153.32,221.63Z"/><circle class="g" cx="273.73" cy="235.58" r="6.27"/><circle class="g" cx="507.08" cy="253.17" r="2.51"/><circle class="g" cx="22.97" cy="106.34" r="10.03"/><circle class="h" cx="527" cy="108.73" r="10.03"/><circle class="h" cx="59" cy="37.67" r="6.27"/><circle class="i" cx="536.49" cy="13.89" r="2.51"/><circle class="i" cx="514.07" cy="28.94" r="10"/></svg>