<svg xmlns="http://www.w3.org/2000/svg" xmlns:xlink="http://www.w3.org/1999/xlink" viewBox="0 0 321.12 92.98"><defs><style>.cls-1{fill:url(#linear-gradient);}.cls-2{fill:url(#linear-gradient-2);}.cls-3{fill:url(#linear-gradient-3);}.cls-4{fill:url(#linear-gradient-4);}.cls-5{fill:url(#linear-gradient-5);}.cls-6{fill:url(#linear-gradient-6);}.cls-7{fill:url(#linear-gradient-7);}</style><linearGradient id="linear-gradient" x1="158.46" y1="87.33" x2="158.46" y2="18.9" gradientUnits="userSpaceOnUse"><stop offset="0.01" stop-opacity="0.7"/><stop offset="0.02" stop-color="#0a0a0a" stop-opacity="0.72"/><stop offset="0.04" stop-color="#292929" stop-opacity="0.8"/><stop offset="0.07" stop-color="#454545" stop-opacity="0.86"/><stop offset="0.09" stop-color="#5b5b5b" stop-opacity="0.91"/><stop offset="0.13" stop-color="#6c6c6c" stop-opacity="0.95"/><stop offset="0.17" stop-color="#777" stop-opacity="0.98"/><stop offset="0.23" stop-color="#7e7e7e"/><stop offset="0.4" stop-color="gray"/><stop offset="0.69" stop-color="#b5b5b5"/><stop offset="1" stop-color="#f2f2f2"/></linearGradient><linearGradient id="linear-gradient-2" x1="249.6" x2="249.6" y2="92.98" gradientUnits="userSpaceOnUse"><stop offset="0" stop-color="#fff"/><stop offset="1" stop-color="#4d4d4d"/></linearGradient><linearGradient id="linear-gradient-3" x1="71.52" y1="0" x2="71.52" y2="92.98" xlink:href="#linear-gradient-2"/><linearGradient id="linear-gradient-4" x1="60.67" y1="35.57" x2="60.67" y2="59.06" gradientUnits="userSpaceOnUse"><stop offset="0" stop-color="#fff"/><stop offset="0.12" stop-color="#f9f9f9"/><stop offset="0.27" stop-color="#e9e9e9"/><stop offset="0.45" stop-color="#cfcfcf"/><stop offset="0.64" stop-color="#aaa"/><stop offset="0.83" stop-color="#7b7b7b"/><stop offset="1" stop-color="#4d4d4d"/></linearGradient><linearGradient id="linear-gradient-5" x1="81.25" y1="64.77" x2="81.25" y2="79.56" gradientUnits="userSpaceOnUse"><stop offset="0" stop-color="#fff"/><stop offset="0.17" stop-color="#d1d1d1"/><stop offset="0.36" stop-color="#a2a2a2"/><stop offset="0.55" stop-color="#7d7d7d"/><stop offset="0.73" stop-color="#636363"/><stop offset="0.88" stop-color="#535353"/><stop offset="1" stop-color="#4d4d4d"/></linearGradient><linearGradient id="linear-gradient-6" x1="260.36" y1="35.77" x2="260.36" y2="59.26" xlink:href="#linear-gradient-4"/><linearGradient id="linear-gradient-7" x1="239.78" y1="64.97" x2="239.78" y2="79.77" xlink:href="#linear-gradient-5"/></defs><title>CCA Logo- Wolf Grey</title><g id="Layer_2" data-name="Layer 2"><g id="Layer_1-2" data-name="Layer 1"><path class="cls-1" d="M171.24,56h21.42c-.72,18.6-15.75,31.35-34.19,31.35a34.21,34.21,0,0,1,0-68.43c18.44,0,33.47,11.5,34.19,29.08H170.95c-.69-5.19-5.31-7.27-11.68-7.27a12.4,12.4,0,0,0,0,24.8C165.65,65.51,170.55,62.5,171.24,56Z"/><path class="cls-2" d="M178.47,93s26.46-12.5,26.46-39.87c0-34.21-26.85-39.21-26.85-39.21S274.3,39,321.12,0C309,46.49,236.72,35,214.3,32.76c-6.46-.65-4.18-2.87-3.34,2.22C213.26,48.87,225.33,78.27,178.47,93Z"/><path class="cls-3" d="M142.66,93s-26.51-12.5-26.51-39.87C116.15,18.9,143,13.91,143,13.91S46.82,39,0,0C12.12,46.49,84.4,35,106.82,32.76c4-.28,4-.28,3.34,2.22C107.86,48.87,95.74,80.31,142.66,93Z"/><path class="cls-4" d="M100.34,43.26l-1.25,5c-1.15,6.75-.86,9-1.1,9.06C80.64,60.9,33.22,61.23,21,35.57,21,35.57,39.27,52,100.34,43.26Z"/><path class="cls-5" d="M98.48,66.25s.65,1.24,2.32,5.3c1.58,3.84,6.66,7.58,6.48,7.57-12.57-.39-37.6,5.16-52.06-14.35C63.34,66.11,76.22,70.48,98.48,66.25Z"/><path class="cls-6" d="M220.7,43.46l1.25,5c1.15,6.75.86,9,1.1,9.06,17.36,3.61,64.78,3.94,77-21.72C300,35.77,281.77,52.16,220.7,43.46Z"/><path class="cls-7" d="M222.56,66.45s-.65,1.24-2.32,5.3c-1.58,3.84-6.66,7.58-6.48,7.57,12.57-.39,37.6,5.16,52.06-14.35C257.69,66.32,244.82,70.69,222.56,66.45Z"/></g></g></svg>